# xmcd
#
# Track frame offsets:
#	150
#	16760
#	44227
#	65302
#	89967
#	109925
#	129760
#	150782
#	168850
#	187675
#	208965
#
# Disc length: 3071 seconds
#
# Revision: 0
# Processed by: cddbd v1.5.1PL0 Copyright (c) Steve Scherf et al.
# Submitted via: dBpowerAMP V4.0
#
DISCID=8a0bfd0b
DTITLE=Respatexans, the - Shine On
DYEAR=2005
DGENRE=Country
TTITLE0=Woman In Rags
TTITLE1=Blind Willie McTell
TTITLE2=Freak Magnet
TTITLE3=Something Broken
TTITLE4=The Lady With the Fan
TTITLE5=Fireworks
TTITLE6=This Train Is Gone
TTITLE7=Shine On
TTITLE8=Isabelle
TTITLE9=Hellbilly Heaven
TTITLE10=Once In A While
EXTD=
EXTT0=
EXTT1=
EXTT2=
EXTT3=
EXTT4=
EXTT5=
EXTT6=
EXTT7=
EXTT8=
EXTT9=
EXTT10=
PLAYORDER=
